<?xml version="1.0" encoding="UTF-8" standalone="no"?>
<svg
   height="20"
   width="20"
   version="1.1"
   id="svg4"
   sodipodi:docname="receipt_long_FILL1_wght700_GRAD-25_opsz20.svg"
   inkscape:version="1.1.2 (0a00cf5339, 2022-02-04)"
   xmlns:inkscape="http://www.inkscape.org/namespaces/inkscape"
   xmlns:sodipodi="http://sodipodi.sourceforge.net/DTD/sodipodi-0.dtd"
   xmlns="http://www.w3.org/2000/svg"
   xmlns:svg="http://www.w3.org/2000/svg">
  <defs
     id="defs8" />
  <sodipodi:namedview
     id="namedview6"
     pagecolor="#505050"
     bordercolor="#ffffff"
     borderopacity="1"
     inkscape:pageshadow="0"
     inkscape:pageopacity="0"
     inkscape:pagecheckerboard="1"
     showgrid="false"
     inkscape:zoom="31.8"
     inkscape:cx="9.9842767"
     inkscape:cy="10"
     inkscape:window-width="1920"
     inkscape:window-height="1014"
     inkscape:window-x="0"
     inkscape:window-y="32"
     inkscape:window-maximized="1"
     inkscape:current-layer="svg4" />
  <path
     d="M5.188 19.062q-1.313 0-2.084-.75-.771-.75-.771-2.083v-3.5h2.271V1.75l1.375 1.292L7.25 1.75l1.292 1.292L9.854 1.75l1.292 1.292 1.292-1.292 1.291 1.292 1.292-1.292 1.291 1.292 1.355-1.292v14.229q0 1.333-.896 2.209-.896.874-2.209.874Zm9.374-2.354q.334 0 .542-.187.208-.188.208-.542V5.167H6.958v7.562h6.875v3.25q.021.354.209.542.187.187.52.187ZM7.979 8.229V6.833h3.854v1.396Zm0 2.459V9.292h3.854v1.396Zm5.604-2.459q-.271 0-.489-.208-.219-.209-.219-.5 0-.271.219-.479.218-.209.489-.209t.479.209q.209.208.209.479 0 .291-.209.5-.208.208-.479.208Zm0 2.459q-.271 0-.489-.209-.219-.208-.219-.5 0-.271.219-.479.218-.208.489-.208t.479.208q.209.208.209.479 0 .292-.209.5-.208.209-.479.209Z"
     id="path2"
     style="fill:#ffffff;fill-opacity:1" />
</svg>
