<?xml version="1.0" encoding="UTF-8" standalone="no"?>
<svg
   height="20"
   width="20"
   version="1.1"
   id="svg1087"
   sodipodi:docname="sync_FILL1_wght700_GRAD-25_opsz20.svg"
   inkscape:version="1.1.2 (0a00cf5339, 2022-02-04)"
   xmlns:inkscape="http://www.inkscape.org/namespaces/inkscape"
   xmlns:sodipodi="http://sodipodi.sourceforge.net/DTD/sodipodi-0.dtd"
   xmlns="http://www.w3.org/2000/svg"
   xmlns:svg="http://www.w3.org/2000/svg">
  <defs
     id="defs1091" />
  <sodipodi:namedview
     id="namedview1089"
     pagecolor="#505050"
     bordercolor="#ffffff"
     borderopacity="1"
     inkscape:pageshadow="0"
     inkscape:pageopacity="0"
     inkscape:pagecheckerboard="1"
     showgrid="false"
     inkscape:zoom="31.8"
     inkscape:cx="-0.047169811"
     inkscape:cy="10"
     inkscape:window-width="1920"
     inkscape:window-height="1014"
     inkscape:window-x="0"
     inkscape:window-y="32"
     inkscape:window-maximized="1"
     inkscape:current-layer="svg1087" />
  <path
     d="M4.688 16.271v-1.709h.854l.229.146q-.979-.896-1.563-2.114-.583-1.219-.583-2.594 0-2.375 1.552-4.125T9 3.708v2.417q-1.312.292-2.167 1.365-.854 1.072-.854 2.51 0 .854.365 1.615.364.76.968 1.323l-.104-.105v-.812h1.709v4.25Zm6.312.021v-2.417q1.333-.292 2.188-1.365.854-1.072.854-2.51 0-.854-.375-1.615-.375-.76-.979-1.323l.104.105v.812h-1.709v-4.25h4.229v1.709h-.854l-.229-.146q.979.896 1.573 2.114.594 1.219.594 2.594 0 2.375-1.552 4.125T11 16.292Z"
     id="path1085"
     style="fill:#ffffff;fill-opacity:1" />
</svg>
